# xmcd
#
# Track frame offsets:
# 150
# 16516
# 33561
# 48248
# 61270
# 74358
# 85416
# 95882
# 107887
# 119314
# 133297
# 151551
# 162100
#
# Disc length: 2326 seconds
#
#
# Revision: 0
# Processed by: cddbd v1.5.2PL0 Copyright (c) Steve Scherf et al.
# Submitted via: FreeRIP 2.945 
#
DISCID=a609140d
DTITLE=Zé Moraes - Campeiro da Cordeona
DYEAR=1900
DGENRE=
TTITLE0=Camperio da Cordeona
TTITLE1=Olhar Encantador
TTITLE2=Infância de Campanha
TTITLE3=Naquele Tempo
TTITLE4=Assim que Sou
TTITLE5=Paraná de Toda Gente
TTITLE6=Vida de Gaudério
TTITLE7=Do Paraná ao Rio Grande
TTITLE8=Festança nos Silvérios
TTITLE9=Linda Morena
TTITLE10=Meu Grande Amor
TTITLE11=Tudo é o Zé
TTITLE12=Baile Animado
EXTD=
EXTT0=
EXTT1=
EXTT2=
EXTT3=
EXTT4=
EXTT5=
EXTT6=
EXTT7=
EXTT8=
EXTT9=
EXTT10=
EXTT11=
EXTT12=
PLAYORDER=
